<?xml version="1.0" encoding="utf-8"?>
<!-- Generator: Adobe Illustrator 28.0.0, SVG Export Plug-In . SVG Version: 6.00 Build 0)  -->
<svg version="1.1" id="Layer_1" xmlns="http://www.w3.org/2000/svg" xmlns:xlink="http://www.w3.org/1999/xlink" x="0px" y="0px"
	 viewBox="0 0 917 272" style="enable-background:new 0 0 917 272;" xml:space="preserve">
<style type="text/css">
	.st0{fill:#FFFFFF;}
	.st1{fill:#A6A5A5;}
	.st2{fill:#010101;}
	.st3{opacity:0.1;fill:#FFFFFF;}
</style>
<g>
	<path class="st0" d="M911.1,239.57c0,14.37-11.65,26.02-26.03,26.02c-0.01,0-0.02,0-0.03,0H32.4
		c-14.39,0.02-26.07-11.63-26.09-26.02V32.07C6.33,17.67,18,6.01,32.4,6.01h852.64c14.39,0,26.05,11.66,26.05,26.05c0,0,0,0,0,0.01
		L911.1,239.57L911.1,239.57z"/>
	<path class="st1" d="M885.05,271.65H32.4c-17.73,0-32.1-14.35-32.14-32.07V32.07C0.29,14.34,14.66-0.02,32.4-0.04h852.64
		c17.73,0.02,32.1,14.38,32.14,32.11v207.5C917.19,257.26,902.75,271.65,885.05,271.65L885.05,271.65z"/>
	<path class="st2" d="M911.1,239.57c0,14.37-11.65,26.02-26.03,26.02c-0.01,0-0.02,0-0.03,0H32.4
		c-14.39,0.02-26.07-11.63-26.09-26.02V32.07C6.33,17.67,18,6.01,32.4,6.01h852.64c14.39,0,26.05,11.66,26.05,26.05c0,0,0,0,0,0.01
		L911.1,239.57L911.1,239.57z"/>
	<path class="st3" d="M885.05-0.04H428.34l178.88,271.68h277.82c17.73-0.01,32.1-14.37,32.14-32.09V32.07
		C917.16,14.34,902.78-0.02,885.05-0.04z"/>
	<path class="st0" d="M211.54,138.25c-0.19-21.42,17.54-31.83,18.35-32.32c-10.04-14.64-25.61-16.64-31.08-16.8
		c-13.07-1.38-25.75,7.82-32.41,7.82c-6.79,0-17.05-7.69-28.1-7.46c-14.22,0.22-27.53,8.45-34.83,21.24
		c-15.06,26.07-3.83,64.37,10.6,85.44c7.22,10.33,15.65,21.84,26.69,21.44c10.8-0.44,14.83-6.88,27.87-6.88
		c12.91,0,16.7,6.88,27.96,6.62c11.59-0.18,18.89-10.37,25.85-20.78c8.34-11.82,11.69-23.48,11.82-24.07
		C234,172.4,211.76,163.91,211.54,138.25L211.54,138.25z M190.27,75.27c5.81-7.26,9.78-17.14,8.68-27.17
		c-8.41,0.37-18.92,5.81-24.98,12.92c-5.36,6.26-10.14,16.52-8.91,26.17C174.51,87.89,184.21,82.42,190.27,75.27L190.27,75.27z"/>
	<g>
		<path class="st0" d="M367.97,208.44h-15.09l-8.27-25.97h-28.74L308,208.44h-14.7l28.48-88.43h17.59L367.97,208.44L367.97,208.44z
			 M342.12,171.57l-7.48-23.09c-0.79-2.36-2.28-7.91-4.46-16.66h-0.27c-0.88,3.76-2.28,9.32-4.2,16.66l-7.35,23.09H342.12z
			 M441.07,175.78c0,10.84-2.94,19.42-8.84,25.71c-5.28,5.6-11.84,8.4-19.66,8.4c-8.45,0-14.52-3.01-18.21-9.04v33.46h-14.17v-68.66
			c0-6.81-0.18-13.79-0.53-20.96h12.46l0.79,10.11h0.27c4.73-7.61,11.9-11.42,21.52-11.42c7.52,0,13.8,2.97,18.83,8.92
			C438.55,158.24,441.07,166.07,441.07,175.78L441.07,175.78z M426.63,176.3c0-6.21-1.4-11.32-4.2-15.36
			c-3.06-4.19-7.18-6.29-12.34-6.29c-3.5,0-6.67,1.17-9.51,3.48c-2.84,2.33-4.71,5.36-5.58,9.12c-0.39,1.41-0.61,2.85-0.66,4.31
			v10.64c0,4.63,1.42,8.54,4.27,11.75c2.84,3.19,6.54,4.79,11.09,4.79c5.34,0,9.49-2.07,12.46-6.17
			C425.15,188.45,426.63,183.03,426.63,176.3z M514.43,175.78c0,10.84-2.94,19.42-8.84,25.71c-5.28,5.6-11.84,8.4-19.67,8.4
			c-8.45,0-14.52-3.01-18.21-9.04v33.46h-14.17v-68.66c0-6.81-0.18-13.79-0.53-20.96h12.46l0.79,10.11h0.27
			c4.72-7.61,11.89-11.42,21.52-11.42c7.52,0,13.8,2.97,18.84,8.92C511.9,158.24,514.43,166.07,514.43,175.78L514.43,175.78z
			 M499.98,176.3c0-6.21-1.4-11.32-4.21-15.36c-3.06-4.19-7.16-6.29-12.32-6.29c-3.5,0-6.67,1.17-9.52,3.48
			c-2.84,2.33-4.7,5.36-5.57,9.12c-0.43,1.75-0.66,3.18-0.66,4.31v10.64c0,4.63,1.43,8.54,4.26,11.75c2.84,3.18,6.54,4.79,11.1,4.79
			c5.34,0,9.5-2.07,12.46-6.17C498.49,188.45,499.98,183.03,499.98,176.3z M596.44,183.64c0,7.53-2.63,13.65-7.86,18.37
			c-5.76,5.16-13.79,7.74-24.09,7.74c-9.52,0-17.15-1.83-22.9-5.51l3.28-11.81c6.21,3.68,13.04,5.51,20.47,5.51
			c5.34,0,9.5-1.21,12.46-3.61c2.97-2.41,4.47-5.62,4.47-9.63c0-3.59-1.24-6.6-3.68-9.06c-2.45-2.45-6.51-4.72-12.2-6.82
			c-15.49-5.77-23.24-14.22-23.24-25.33c0-7.26,2.74-13.2,8.2-17.84c5.46-4.64,12.71-6.96,21.72-6.96c8.05,0,14.75,1.4,20.08,4.2
			l-3.56,11.55c-5.01-2.71-10.67-4.07-16.99-4.07c-5,0-8.92,1.23-11.72,3.67c-2.36,2.19-3.56,4.85-3.56,8.01
			c0,3.49,1.36,6.39,4.07,8.66c2.35,2.09,6.65,4.37,12.85,6.82c7.62,3.07,13.21,6.64,16.8,10.75
			C594.65,172.41,596.44,177.53,596.44,183.64L596.44,183.64z M643.41,155.31h-15.62v30.96c0,7.87,2.75,11.8,8.27,11.8
			c2.53,0,4.63-0.21,6.29-0.66l0.39,10.76c-2.79,1.04-6.47,1.57-11.02,1.57c-5.6,0-9.97-1.71-13.13-5.12
			c-3.14-3.42-4.73-9.14-4.73-17.19v-32.14h-9.3v-10.63h9.3v-11.67l13.92-4.2v15.87h15.62L643.41,155.31L643.41,155.31z
			 M713.74,176.04c0,9.8-2.8,17.85-8.4,24.14c-5.86,6.48-13.64,9.71-23.36,9.71c-9.37,0-16.82-3.1-22.38-9.3
			c-5.56-6.21-8.33-14.04-8.33-23.48c0-9.88,2.87-17.97,8.59-24.27c5.74-6.3,13.46-9.45,23.17-9.45c9.36,0,16.88,3.11,22.56,9.32
			C711.04,158.72,713.74,166.49,713.74,176.04L713.74,176.04z M699.05,176.36c0-5.84-1.26-10.85-3.8-15.04
			c-2.97-5.06-7.22-7.59-12.73-7.59c-5.68,0-10.03,2.53-12.99,7.59c-2.54,4.19-3.8,9.29-3.8,15.31c0,5.85,1.26,10.87,3.8,15.05
			c3.06,5.06,7.34,7.59,12.87,7.59c5.42,0,9.66-2.58,12.73-7.72C697.74,187.26,699.05,182.22,699.05,176.36L699.05,176.36z
			 M759.82,157.14c-1.47-0.27-2.97-0.4-4.47-0.39c-4.98,0-8.84,1.87-11.55,5.65c-2.35,3.32-3.54,7.52-3.54,12.59v33.46H726.1v-43.68
			c0.01-6.69-0.12-13.39-0.41-20.07h12.34l0.52,12.2h0.39c1.5-4.19,3.85-7.57,7.09-10.11c2.96-2.21,6.55-3.41,10.24-3.42
			c1.31,0,2.49,0.09,3.54,0.26L759.82,157.14L759.82,157.14z M823.19,173.54c0.04,2.15-0.14,4.31-0.52,6.43h-42.51
			c0.16,6.3,2.22,11.12,6.17,14.45c3.58,2.96,8.21,4.45,13.9,4.45c6.29,0,12.04-1,17.2-3.01l2.22,9.83
			c-6.03,2.63-13.16,3.94-21.38,3.94c-9.89,0-17.65-2.91-23.3-8.72c-5.64-5.81-8.46-13.63-8.46-23.42c0-9.61,2.63-17.61,7.88-24
			c5.5-6.82,12.94-10.23,22.3-10.23c9.19,0,16.15,3.41,20.88,10.23C821.31,158.89,823.19,165.59,823.19,173.54L823.19,173.54z
			 M809.68,169.87c0.1-4.21-0.83-7.83-2.75-10.89c-2.45-3.95-6.23-5.91-11.29-5.91c-4.63,0-8.41,1.92-11.28,5.77
			c-2.36,3.06-3.76,6.74-4.19,11.02L809.68,169.87L809.68,169.87z"/>
	</g>
	<g>
		<path class="st0" d="M311.79,96.43c-3.94,0-7.35-0.19-10.19-0.52V53.16c3.97-0.61,7.98-0.92,12-0.9
			c16.25,0,23.73,7.99,23.73,21.02C337.33,88.31,328.49,96.43,311.79,96.43z M314.16,57.74c-2.19,0-4.06,0.13-5.61,0.45v32.5
			c0.84,0.13,2.45,0.19,4.71,0.19c10.65,0,16.71-6.06,16.71-17.41C329.97,63.35,324.49,57.74,314.16,57.74z M360.65,96.76
			c-9.16,0-15.09-6.84-15.09-16.12c0-9.67,6.06-16.57,15.61-16.57c9.03,0,15.09,6.51,15.09,16.06
			C376.26,89.92,370.01,96.76,360.65,96.76L360.65,96.76z M360.92,69.16c-5.03,0-8.25,4.7-8.25,11.28c0,6.45,3.29,11.16,8.19,11.16
			c4.9,0,8.19-5.03,8.19-11.29C369.04,73.93,365.81,69.16,360.92,69.16L360.92,69.16z M428.49,64.71l-9.8,31.34h-6.39l-4.06-13.61
			c-1.01-3.33-1.85-6.71-2.52-10.12h-0.13c-0.51,3.42-1.48,6.84-2.51,10.12l-4.32,13.61h-6.45l-9.23-31.34h7.16l3.55,14.9
			c0.84,3.55,1.54,6.9,2.13,10.06h0.13c0.51-2.64,1.35-5.93,2.58-9.99l4.45-14.96h5.68l4.26,14.64c1.03,3.55,1.87,7.03,2.52,10.32
			h0.19c0.45-3.22,1.16-6.64,2.13-10.32l3.81-14.64L428.49,64.71L428.49,64.71z M464.58,96.05h-6.97V78.05
			c0-5.54-2.13-8.32-6.32-8.32c-4.13,0-6.97,3.55-6.97,7.67v18.64h-6.97V73.67c0-2.77-0.07-5.74-0.26-8.96h6.13l0.33,4.84h0.19
			c1.87-3.35,5.68-5.48,9.94-5.48c6.58,0,10.9,5.03,10.9,13.22L464.58,96.05L464.58,96.05z M483.79,96.05h-6.97V50.33h6.97V96.05z
			 M509.18,96.76c-9.15,0-15.09-6.84-15.09-16.12c0-9.67,6.06-16.57,15.61-16.57c9.03,0,15.09,6.51,15.09,16.06
			C524.79,89.92,518.53,96.76,509.18,96.76L509.18,96.76z M509.44,69.16c-5.03,0-8.25,4.7-8.25,11.28c0,6.45,3.3,11.16,8.18,11.16
			c4.9,0,8.19-5.03,8.19-11.29C517.56,73.93,514.35,69.16,509.44,69.16L509.44,69.16z M552.25,96.05l-0.51-3.61h-0.19
			c-2.13,2.9-5.23,4.32-9.17,4.32c-5.62,0-9.6-3.93-9.6-9.22c0-7.73,6.71-11.73,18.32-11.73v-0.58c0-4.13-2.19-6.19-6.51-6.19
			c-3.09,0-5.8,0.78-8.19,2.33L535,66.78c2.9-1.81,6.51-2.71,10.76-2.71c8.19,0,12.32,4.32,12.32,12.96v11.54
			c0,3.16,0.14,5.61,0.45,7.48L552.25,96.05L552.25,96.05z M551.29,80.44c-7.74,0-11.62,1.87-11.62,6.32c0,3.29,2,4.9,4.78,4.9
			c3.54,0,6.84-2.7,6.84-6.38V80.44z M591.9,96.05l-0.33-5.03h-0.19c-2,3.8-5.36,5.74-10.06,5.74c-7.56,0-13.15-6.64-13.15-15.99
			c0-9.8,5.8-16.7,13.72-16.7c4.19,0,7.16,1.42,8.84,4.26h0.14V50.33h6.97V87.6c0,3.03,0.07,5.87,0.26,8.45L591.9,96.05L591.9,96.05
			z M590.87,77.61c0-4.39-2.9-8.13-7.34-8.13c-5.16,0-8.32,4.58-8.32,11.02c0,6.32,3.28,10.64,8.18,10.64
			c4.38,0,7.48-3.81,7.48-8.32L590.87,77.61L590.87,77.61z M642.05,96.76c-9.15,0-15.09-6.84-15.09-16.12
			c0-9.67,6.06-16.57,15.61-16.57c9.03,0,15.09,6.51,15.09,16.06C657.67,89.92,651.41,96.76,642.05,96.76L642.05,96.76z
			 M642.31,69.16c-5.02,0-8.25,4.7-8.25,11.28c0,6.45,3.29,11.16,8.18,11.16c4.91,0,8.19-5.03,8.19-11.29
			C650.44,73.93,647.22,69.16,642.31,69.16L642.31,69.16z M695.12,96.05h-6.97V78.05c0-5.54-2.13-8.32-6.32-8.32
			c-4.13,0-6.96,3.55-6.96,7.67v18.64h-6.97V73.67c0-2.77-0.07-5.74-0.26-8.96h6.13l0.33,4.84h0.19c1.87-3.35,5.68-5.48,9.93-5.48
			c6.58,0,10.91,5.03,10.91,13.22V96.05z M741.98,69.93h-7.66v15.22c0,3.87,1.34,5.81,4.05,5.81c1.23,0,2.26-0.13,3.09-0.33
			l0.19,5.29c-1.35,0.52-3.16,0.78-5.4,0.78c-5.49,0-8.77-3.03-8.77-10.96v-15.8h-4.57v-5.22h4.57v-5.74l6.84-2.07v7.8h7.66
			L741.98,69.93L741.98,69.93z M778.86,96.05h-6.96V78.19c0-5.61-2.12-8.45-6.32-8.45c-3.61,0-6.97,2.45-6.97,7.42v18.89h-6.96
			V50.33h6.96v18.82h0.14c2.19-3.42,5.37-5.1,9.42-5.1c6.63,0,10.69,5.16,10.69,13.35L778.86,96.05L778.86,96.05z M816.63,82.05
			h-20.9c0.13,5.93,4.06,9.28,9.88,9.28c3.09,0,5.94-0.52,8.45-1.48l1.08,4.84c-2.96,1.29-6.45,1.93-10.51,1.93
			c-9.8,0-15.61-6.19-15.61-15.79c0-9.61,5.94-16.83,14.82-16.83c8.01,0,13.03,5.93,13.03,14.9
			C816.92,79.95,816.84,81.01,816.63,82.05L816.63,82.05z M810.25,77.09c0-4.84-2.44-8.25-6.89-8.25c-4,0-7.16,3.48-7.62,8.25
			H810.25L810.25,77.09z"/>
	</g>
</g>
</svg>
