<?xml version="1.0" encoding="utf-8"?>
<!-- Generator: Adobe Illustrator 28.0.0, SVG Export Plug-In . SVG Version: 6.00 Build 0)  -->
<svg version="1.1" id="Layer_1" xmlns="http://www.w3.org/2000/svg" xmlns:xlink="http://www.w3.org/1999/xlink" x="0px" y="0px"
	 viewBox="0 0 917 272" style="enable-background:new 0 0 917 272;" xml:space="preserve">
<style type="text/css">
	.st0{fill:#FFFFFF;}
	.st1{fill:#A6A5A5;}
	.st2{fill:#010101;}
	.st3{opacity:0.1;fill:#FFFFFF;}
	.st4{fill:url(#SVGID_1_);}
	.st5{fill:url(#SVGID_00000057849497630656783900000003532782978177535401_);}
	.st6{fill:url(#SVGID_00000130610547369240395180000009841793467529636020_);}
	.st7{fill:url(#SVGID_00000088836305565220472290000005567515464794560433_);}
</style>
<g>
	<path class="st0" d="M910.5,239.59c0,14.37-11.65,26.02-26.03,26.02c-0.01,0-0.02,0-0.03,0H31.79
		C17.4,265.63,5.72,253.98,5.7,239.59V32.08C5.72,17.69,17.4,6.03,31.79,6.03h852.64c14.39,0,26.05,11.66,26.05,26.05
		c0,0,0,0,0,0.01L910.5,239.59L910.5,239.59z"/>
	<path class="st1" d="M884.44,271.67H31.79c-17.73,0-32.1-14.35-32.14-32.07V32.09C-0.32,14.36,14.06,0,31.79-0.02h852.64
		c17.73,0.02,32.1,14.38,32.14,32.11v207.5C916.59,257.28,902.15,271.67,884.44,271.67L884.44,271.67z"/>
	<path class="st2" d="M910.5,239.59c0,14.37-11.65,26.02-26.03,26.02c-0.01,0-0.02,0-0.03,0H31.79
		C17.4,265.63,5.72,253.98,5.7,239.59V32.08C5.72,17.69,17.4,6.03,31.79,6.03h852.64c14.39,0,26.05,11.66,26.05,26.05
		c0,0,0,0,0,0.01L910.5,239.59L910.5,239.59z"/>
	<path class="st3" d="M884.44-0.02H427.74l178.88,271.68h277.82c17.73-0.01,32.1-14.37,32.14-32.09V32.09
		C916.55,14.36,902.18,0,884.44-0.02z"/>
	<g>
		<path class="st0" d="M323.65,82.11c0,5.31-1.33,9.96-4.65,13.28c-3.98,3.98-8.63,5.98-14.61,5.98c-5.98,0-10.63-1.99-14.61-5.98
			c-3.98-3.98-5.98-8.63-5.98-14.61c0-5.98,1.99-10.63,5.98-14.61c3.98-3.98,8.63-5.98,14.61-5.98c2.66,0,5.31,0.66,7.97,1.99
			s4.65,2.66,5.98,4.65l-3.32,3.32c-2.66-3.32-5.98-4.65-10.63-4.65c-3.98,0-7.97,1.33-10.63,4.65c-3.32,2.66-4.65,6.64-4.65,11.29
			c0,4.65,1.33,8.63,4.65,11.29c3.32,2.66,6.64,4.65,10.63,4.65c4.65,0,7.97-1.33,11.29-4.65c1.99-1.99,3.32-4.65,3.32-7.97h-14.61
			v-5.31h19.26L323.65,82.11L323.65,82.11z M354.2,65.51h-17.93v12.62h16.6v4.65h-16.6V95.4h17.93v5.31h-23.24V60.86h23.24V65.51z
			 M376.11,100.71h-5.31v-35.2h-11.29v-4.65h27.89v4.65h-11.29V100.71z M406.66,100.71V60.86h5.31v39.85H406.66z M434.56,100.71
			h-5.31v-35.2h-11.29v-4.65h27.23v4.65h-11.29v35.2H434.56z M497.64,95.4c-3.98,3.98-8.63,5.98-14.61,5.98
			c-5.98,0-10.63-1.99-14.61-5.98c-3.98-3.98-5.98-8.63-5.98-14.61c0-5.98,1.99-10.63,5.98-14.61c3.98-3.98,8.63-5.98,14.61-5.98
			c5.98,0,10.63,1.99,14.61,5.98s5.98,8.63,5.98,14.61C503.62,86.76,501.63,91.41,497.64,95.4z M472.41,92.07
			c2.66,2.66,6.64,4.65,10.63,4.65c3.98,0,7.97-1.33,10.63-4.65c2.66-2.66,4.65-6.64,4.65-11.29c0-4.65-1.33-8.63-4.65-11.29
			c-2.66-2.66-6.64-4.65-10.63-4.65c-3.98,0-7.97,1.33-10.63,4.65c-2.66,2.66-4.65,6.64-4.65,11.29
			C467.76,85.43,469.09,89.42,472.41,92.07z M510.93,100.71V60.86h5.98l19.26,31.21V60.86h5.31v39.85h-5.31l-20.59-32.54v32.54
			H510.93L510.93,100.71z"/>
		<path class="st0" d="M461.12,150.51c-15.94,0-28.56,11.95-28.56,28.56c0,15.94,12.62,28.56,28.56,28.56s28.56-11.95,28.56-28.56
			C489.68,161.8,477.06,150.51,461.12,150.51z M461.12,195.67c-8.63,0-15.94-7.31-15.94-17.27s7.31-17.27,15.94-17.27
			s15.94,6.64,15.94,17.27C477.06,188.36,469.75,195.67,461.12,195.67z M399.36,150.51c-15.94,0-28.56,11.95-28.56,28.56
			c0,15.94,12.62,28.56,28.56,28.56c15.94,0,28.56-11.95,28.56-28.56C427.91,161.8,415.3,150.51,399.36,150.51z M399.36,195.67
			c-8.63,0-15.94-7.31-15.94-17.27s7.31-17.27,15.94-17.27s15.94,6.64,15.94,17.27C415.3,188.36,407.99,195.67,399.36,195.67z
			 M325.64,159.14v11.95h28.56c-0.66,6.64-3.32,11.95-6.64,15.27c-3.98,3.98-10.63,8.63-21.92,8.63
			c-17.93,0-31.21-13.95-31.21-31.88s13.95-31.88,31.21-31.88c9.3,0,16.6,3.98,21.92,8.63l8.63-8.63
			c-7.31-6.64-16.6-11.95-29.88-11.95c-23.91,0-44.49,19.92-44.49,43.83s20.59,43.83,44.49,43.83c13.28,0,22.58-3.98,30.55-12.62
			c7.97-7.97,10.63-19.26,10.63-27.89c0-2.66,0-5.31-0.66-7.31H325.64L325.64,159.14z M627.14,168.44
			c-2.66-6.64-9.3-17.93-23.91-17.93s-26.56,11.29-26.56,28.56c0,15.94,11.95,28.56,27.89,28.56c12.62,0,20.59-7.97,23.24-12.62
			l-9.3-6.64c-3.32,4.65-7.31,7.97-13.95,7.97s-10.63-2.66-13.95-8.63l37.85-15.94L627.14,168.44L627.14,168.44z M588.63,177.74
			c0-10.63,8.63-16.6,14.61-16.6c4.65,0,9.3,2.66,10.63,5.98L588.63,177.74L588.63,177.74z M557.41,204.97h12.62v-83.01h-12.62
			V204.97z M537.49,156.49c-3.32-3.32-8.63-6.64-15.27-6.64c-13.95,0-27.23,12.62-27.23,28.56s12.62,27.89,27.23,27.89
			c6.64,0,11.95-3.32,14.61-6.64h0.66v3.98c0,10.63-5.98,16.6-15.27,16.6c-7.31,0-12.62-5.31-13.95-9.96l-10.63,4.65
			c3.32,7.31,11.29,16.6,25.24,16.6c14.61,0,26.56-8.63,26.56-29.22v-50.47h-11.95V156.49L537.49,156.49z M522.88,195.67
			c-8.63,0-15.94-7.31-15.94-17.27c0-9.96,7.31-17.27,15.94-17.27c8.63,0,15.27,7.31,15.27,17.27
			C538.15,188.36,531.51,195.67,522.88,195.67z M684.92,121.95h-29.88v83.01h12.62v-31.21h17.27c13.95,0,27.23-9.96,27.23-25.9
			S698.87,121.95,684.92,121.95z M685.58,161.8h-17.93v-28.56h17.93c9.3,0,14.61,7.97,14.61,13.95
			C699.53,154.5,694.22,161.8,685.58,161.8L685.58,161.8z M761.95,149.85c-9.3,0-18.59,3.98-21.92,12.62l11.29,4.65
			c2.66-4.65,6.64-5.98,11.29-5.98c6.64,0,12.62,3.98,13.28,10.63v0.66c-1.99-1.33-7.31-3.32-12.62-3.32
			c-11.95,0-23.91,6.64-23.91,18.59c0,11.29,9.96,18.59,20.59,18.59c8.63,0,12.62-3.98,15.94-7.97h0.66v6.64h11.95v-31.88
			C787.19,158.48,775.9,149.85,761.95,149.85L761.95,149.85z M760.63,195.67c-3.98,0-9.96-1.99-9.96-7.31
			c0-6.64,7.31-8.63,13.28-8.63c5.31,0,7.97,1.33,11.29,2.66C773.91,190.36,767.27,195.67,760.63,195.67z M830.36,151.84
			l-13.95,35.86h-0.66l-14.61-35.86h-13.28l21.92,50.47l-12.62,27.89h12.62l33.87-78.36H830.36L830.36,151.84z M718.79,204.97h12.62
			v-83.01h-12.62V204.97z"/>
		<g>
			<linearGradient id="SVGID_1_" gradientUnits="userSpaceOnUse" x1="138.8475" y1="54.6337" x2="138.8475" y2="219.9024">
				<stop  offset="0" style="stop-color:#267CAF"/>
				<stop  offset="0.286" style="stop-color:#4A92B4"/>
				<stop  offset="0.767" style="stop-color:#79BCBA"/>
				<stop  offset="1" style="stop-color:#88CEBC"/>
			</linearGradient>
			<path class="st4" d="M98.34,55.11c-1.99,1.99-2.66,5.31-2.66,9.3v146.77c0,3.98,1.33,7.31,3.32,9.3l0.66,0.66l82.35-82.35v-1.33
				L98.34,55.11z"/>
			
				<linearGradient id="SVGID_00000025439592103949323990000005884428973191503031_" gradientUnits="userSpaceOnUse" x1="224.3218" y1="118.1786" x2="204.1667" y2="163.7675">
				<stop  offset="0" style="stop-color:#F48879"/>
				<stop  offset="0.119" style="stop-color:#F5907A"/>
				<stop  offset="0.713" style="stop-color:#FBB777"/>
				<stop  offset="1" style="stop-color:#FDC874"/>
			</linearGradient>
			<path style="fill:url(#SVGID_00000025439592103949323990000005884428973191503031_);" d="M208.58,166.68l-27.23-27.23v-1.99
				l27.23-27.23l0.66,0.66l32.54,18.59c9.3,5.31,9.3,13.95,0,19.26L208.58,166.68z"/>
			
				<linearGradient id="SVGID_00000082331644388277037550000000969637324148338831_" gradientUnits="userSpaceOnUse" x1="194.3466" y1="152.8396" x2="103.6576" y2="226.1794">
				<stop  offset="0" style="stop-color:#EB413D"/>
				<stop  offset="0.167" style="stop-color:#D94452"/>
				<stop  offset="0.575" style="stop-color:#AF487A"/>
				<stop  offset="0.862" style="stop-color:#954B92"/>
				<stop  offset="1" style="stop-color:#894A9C"/>
			</linearGradient>
			<path style="fill:url(#SVGID_00000082331644388277037550000000969637324148338831_);" d="M209.24,166.02l-27.89-27.89
				l-83.01,83.01c3.32,3.32,7.97,3.32,13.95,0.66L209.24,166.02"/>
			
				<linearGradient id="SVGID_00000071556610708777122400000009946108559549258661_" gradientUnits="userSpaceOnUse" x1="110.0945" y1="59.1171" x2="196.8405" y2="125.3595">
				<stop  offset="0" style="stop-color:#54C0AC"/>
				<stop  offset="1" style="stop-color:#DDE79A"/>
			</linearGradient>
			<path style="fill:url(#SVGID_00000071556610708777122400000009946108559549258661_);" d="M209.24,110.23l-96.96-55.12
				c-5.98-3.32-10.63-2.66-13.95,0.66l83.01,82.35L209.24,110.23L209.24,110.23z"/>
		</g>
	</g>
</g>
</svg>