<?xml version="1.0" encoding="UTF-8"?>
<svg fill="none" viewBox="0 0 313 93" xmlns="http://www.w3.org/2000/svg">
<g clip-path="url(#c)">
<rect x="1.6081" y="1.3417" width="309.92" height="90.527" rx="10.623" fill="#000"/>
<rect x="1.6081" y="1.3417" width="309.92" height="90.527" rx="10.623" stroke="#A6A6A6" stroke-width="1.8475"/>
<path d="m50.619 27.529c0 7.1234-5.7811 12.9-12.915 12.9s-12.913-5.7762-12.913-12.9c0-7.1235 5.7811-12.9 12.915-12.9s12.915 5.7743 12.915 12.9h-2e-3zm-0.8046 23.938v-11.29l-12.108 9.1043-12.11-9.1063v11.29l12.108 9.1043 12.108-9.1043 2e-3 2e-3zm0 17.493v-11.29l-12.108 9.1043-12.11-9.1082v11.29l12.108 9.1043 12.108-9.1043 2e-3 0.0039z" fill="url(#a)"/>
<path d="m72.992 28.63v-14h4.0289c1.7757 0 3.2436 0.5929 4.4039 1.7789 1.1667 1.1795 1.7501 2.7757 1.7501 4.7885v0.8654c0 2.0129-0.5802 3.6123-1.7405 4.7982-1.1602 1.1795-2.6314 1.7692-4.4135 1.7692h-4.0289zm1.7404-1.4423h2.2885c1.3462 0 2.4135-0.4519 3.202-1.3558 0.7949-0.9039 1.1923-2.1603 1.1923-3.7693v-0.8654c0-1.609-0.3974-2.8622-1.1923-3.7597-0.7949-0.9038-1.8622-1.359-3.202-1.3654h-2.2885v11.116zm10.298-3.3751v-0.3077c0-1.5 0.423-2.7244 1.2692-3.6731s1.9776-1.4231 3.3943-1.4231 2.5481 0.4744 3.3943 1.4231 1.2692 2.1731 1.2692 3.6731v0.3077c0 1.5001-0.423 2.7244-1.2692 3.6732-0.8462 0.9487-1.9776 1.4231-3.3943 1.4231s-2.5481-0.4744-3.3943-1.4231c-0.8462-0.9488-1.2692-2.1731-1.2692-3.6732zm1.7308-0.3077v0.3077c0 1.0385 0.2468 1.9167 0.7404 2.6347 0.4936 0.7116 1.2243 1.0673 2.1923 1.0673s1.6988-0.3557 2.1923-1.0673c0.4936-0.718 0.7404-1.5962 0.7404-2.6347v-0.3077c0-1.0448-0.2468-1.9231-0.7404-2.6346-0.4935-0.7116-1.2243-1.0673-2.1923-1.0673s-1.6987 0.3557-2.1923 1.0673c-0.4936 0.7115-0.7404 1.5898-0.7404 2.6346zm8.5963-4.8173h1.6442l1.8558 6.5866c0.0705 0.2564 0.125 0.4712 0.1635 0.6442 0.0449 0.1667 0.0929 0.3686 0.1442 0.6058h0.0577c0.0449-0.2372 0.0898-0.4391 0.1346-0.6058 0.0449-0.173 0.109-0.3878 0.1923-0.6442l2.1828-6.5866h1.462l2.23 6.5866c0.084 0.2564 0.148 0.4712 0.193 0.6442 0.045 0.1667 0.093 0.3686 0.144 0.6058h0.058c0.051-0.2372 0.096-0.4423 0.134-0.6154 0.039-0.173 0.093-0.3846 0.164-0.6346l1.798-6.5866h1.548l-3.048 9.9424h-1.356l-2.192-6.5482c-0.084-0.2436-0.161-0.4871-0.231-0.7307-0.071-0.2436-0.135-0.4904-0.192-0.7404h-0.058c-0.064 0.25-0.132 0.4968-0.202 0.7404-0.064 0.2371-0.138 0.4807-0.221 0.7307l-2.1926 6.5482h-1.3558l-3.0577-9.9424zm15.721 9.9424v-9.9424h1.539l0.067 1.2884h0.048c0.359-0.4615 0.798-0.8237 1.318-1.0865 0.525-0.2628 1.108-0.3943 1.75-0.3943 0.993 0 1.785 0.2853 2.375 0.8558 0.596 0.5641 0.894 1.5097 0.894 2.8366v6.4424h-1.693v-6.4424c0-0.8141-0.182-1.3942-0.548-1.7404-0.359-0.3526-0.871-0.5289-1.538-0.5289-0.564 0-1.064 0.1571-1.5 0.4712-0.436 0.3077-0.776 0.7051-1.019 1.1923v7.0482h-1.693zm10.741 0v-14.673h1.692v14.673h-1.692zm3.923-4.8174v-0.3077c0-1.5 0.423-2.7244 1.269-3.6731s1.978-1.4231 3.395-1.4231c1.416 0 2.548 0.4744 3.394 1.4231s1.269 2.1731 1.269 3.6731v0.3077c0 1.5001-0.423 2.7244-1.269 3.6732-0.846 0.9487-1.978 1.4231-3.394 1.4231-1.417 0-2.549-0.4744-3.395-1.4231-0.846-0.9488-1.269-2.1731-1.269-3.6732zm1.731-0.3077v0.3077c0 1.0385 0.247 1.9167 0.74 2.6347 0.494 0.7116 1.225 1.0673 2.193 1.0673s1.698-0.3557 2.192-1.0673c0.494-0.718 0.74-1.5962 0.74-2.6347v-0.3077c0-1.0448-0.246-1.9231-0.74-2.6346-0.494-0.7116-1.224-1.0673-2.192-1.0673s-1.699 0.3557-2.193 1.0673c-0.493 0.7115-0.74 1.5898-0.74 2.6346zm9.202 2.2116c0-1.0064 0.397-1.7917 1.192-2.3558s1.811-0.8462 3.048-0.8462h2.27v-0.7115c0-0.609-0.161-1.0994-0.481-1.4712-0.314-0.3782-0.853-0.5673-1.616-0.5673-0.756 0-1.304 0.157-1.644 0.4712-0.333 0.3077-0.5 0.6763-0.5 1.1057v0.077h-1.683v-0.0866c0-0.7884 0.347-1.4712 1.039-2.0481 0.699-0.5833 1.644-0.875 2.837-0.875 1.185 0 2.105 0.2821 2.759 0.8462 0.654 0.5577 0.981 1.407 0.981 2.5481v4.5193c0 0.4167 0.029 0.8109 0.087 1.1827 0.064 0.3654 0.153 0.6891 0.269 0.9712v0.1538h-1.625c-0.096-0.1602-0.18-0.3686-0.25-0.625-0.071-0.2564-0.119-0.5128-0.145-0.7692-0.23 0.4102-0.609 0.7756-1.134 1.0962-0.519 0.3205-1.192 0.4807-2.019 0.4807-0.949 0-1.75-0.266-2.404-0.7981-0.654-0.532-0.981-1.2981-0.981-2.2981zm1.692-0.0865c0 0.5705 0.167 1.0192 0.5 1.3462 0.34 0.3205 0.856 0.4807 1.548 0.4807 0.705 0 1.343-0.2436 1.914-0.7307 0.57-0.4872 0.856-1.0033 0.856-1.5481v-1.4424h-2.077c-0.904 0-1.587 0.1699-2.048 0.5096-0.462 0.3398-0.693 0.8013-0.693 1.3847zm8.625-1.8174v-0.3077c0-1.4551 0.375-2.6538 1.125-3.5962 0.757-0.9423 1.763-1.4135 3.02-1.4135 0.705 0 1.301 0.125 1.788 0.375 0.494 0.2436 0.885 0.5706 1.173 0.9808v-5.8943h1.693v14.673h-1.529l-0.077-1.3077h-0.048c-0.257 0.4103-0.648 0.7629-1.173 1.0577-0.52 0.2949-1.129 0.4423-1.827 0.4423-1.257 0-2.263-0.4711-3.02-1.4134-0.75-0.9488-1.125-2.1475-1.125-3.5963zm1.731 0c0 1.0257 0.225 1.8847 0.673 2.577 0.449 0.6923 1.151 1.0385 2.106 1.0385 0.641 0 1.183-0.1763 1.625-0.5289 0.449-0.3525 0.773-0.7532 0.971-1.2019v-4.1059c-0.198-0.4423-0.522-0.8365-0.971-1.1827-0.442-0.3461-0.984-0.5192-1.625-0.5192-0.955 0-1.657 0.3462-2.106 1.0385-0.448 0.6923-0.673 1.5513-0.673 2.5769v0.3077zm13.866 0v-0.3077c0-1.5 0.423-2.7244 1.269-3.6731s1.978-1.4231 3.394-1.4231c1.417 0 2.548 0.4744 3.395 1.4231 0.846 0.9487 1.269 2.1731 1.269 3.6731v0.3077c0 1.5001-0.423 2.7244-1.269 3.6732-0.847 0.9487-1.978 1.4231-3.395 1.4231-1.416 0-2.548-0.4744-3.394-1.4231-0.846-0.9488-1.269-2.1731-1.269-3.6732zm1.731-0.3077v0.3077c0 1.0385 0.246 1.9167 0.74 2.6347 0.494 0.7116 1.224 1.0673 2.192 1.0673s1.699-0.3557 2.193-1.0673c0.493-0.718 0.74-1.5962 0.74-2.6347v-0.3077c0-1.0448-0.247-1.9231-0.74-2.6346-0.494-0.7116-1.225-1.0673-2.193-1.0673s-1.698 0.3557-2.192 1.0673c-0.494 0.7115-0.74 1.5898-0.74 2.6346zm9.759 5.1251v-9.9424h1.539l0.067 1.2884h0.048c0.359-0.4615 0.798-0.8237 1.318-1.0865 0.525-0.2628 1.109-0.3943 1.75-0.3943 0.993 0 1.785 0.2853 2.375 0.8558 0.596 0.5641 0.894 1.5097 0.894 2.8366v6.4424h-1.692v-6.4424c0-0.8141-0.183-1.3942-0.548-1.7404-0.359-0.3526-0.872-0.5289-1.539-0.5289-0.564 0-1.064 0.1571-1.5 0.4712-0.436 0.3077-0.776 0.7051-1.019 1.1923v7.0482h-1.693z" fill="#fff"/>
<g clip-path="url(#b)" fill="#fff">
<path d="m78.565 72.594h-7.1597v-34.871h7.1597v34.871z"/>
<path d="m106.23 72.594h-6.6721v-12.088c0-1.766-0.4151-3.1461-1.2431-4.1381-0.8301-0.992-1.9715-1.488-3.4284-1.488-1.0231 0-1.9258 0.2449-2.7082 0.7326s-1.3904 1.1788-1.8242 2.0691c-0.4337 0.8923-0.6516 1.957-0.6516 3.1959v11.717h-6.672v-23.741h5.3936l0.2325 4.2149c0.8363-1.3634 1.9528-2.4011 3.3474-3.115 1.3946-0.7118 3.0071-1.0687 4.8354-1.0687 2.9137 0 5.2067 0.8944 6.8817 2.6854 1.675 1.7909 2.511 4.2418 2.511 7.3568v13.67l-2e-3 -0.0021z"/>
<path d="m135.8 72.594h-5.859l-0.349-3.1607c-0.992 1.1165-2.181 1.9985-3.567 2.6501-1.386 0.6517-2.901 0.9754-4.545 0.9754-2.123 0-4.018-0.523-5.684-1.5689-1.667-1.0459-2.98-2.4841-3.941-4.3124s-1.442-3.8974-1.442-6.2072 0.479-4.3975 1.442-6.2196c0.961-1.82 2.274-3.254 3.941-4.3 1.666-1.0459 3.561-1.5689 5.684-1.5689 1.519 0 2.932 0.276 4.242 0.826 1.309 0.5499 2.445 1.3136 3.406 2.289v-14.274h6.672v34.871zm-12.599-5.5099c1.099 0 2.096-0.247 2.986-0.743s1.604-1.1746 2.139-2.0337c0.536-0.8592 0.802-1.8408 0.802-2.9407v-0.8363c0-1.0999-0.268-2.0774-0.802-2.9283-0.535-0.8529-1.247-1.5232-2.139-2.0109-0.893-0.4877-1.887-0.7326-2.986-0.7326-1.1 0-2.146 0.2636-3.045 0.7907s-1.608 1.2514-2.127 2.1728-0.778 1.9715-0.778 3.1503c0 1.1787 0.259 2.2039 0.778 3.1274 0.519 0.9215 1.228 1.6499 2.127 2.1853s1.913 0.8011 3.045 0.8011v-0.0021z"/>
<path d="m163.47 72.594h-5.416l-0.233-3.7189c-0.822 1.3635-1.909 2.4032-3.266 3.115-1.358 0.7118-2.941 1.0688-4.755 1.0688-2.976 0-5.308-0.9152-6.998-2.7435-1.689-1.8284-2.533-4.3394-2.533-7.5312v-13.931h6.672v12.398c0 1.8138 0.429 3.2354 1.29 4.2668 0.86 1.0314 2.034 1.5461 3.522 1.5461s2.779-0.5375 3.684-1.6166c0.907-1.0771 1.359-2.5381 1.359-4.383v-12.211h6.672v23.741h2e-3z"/>
<path d="m167.37 70.596 1.465-5.6717c0.465 0.5105 1.089 0.9837 1.872 1.4174 0.782 0.4338 1.627 0.7783 2.533 1.0335 0.907 0.2553 1.762 0.3839 2.57 0.3839 0.961 0 1.712-0.1826 2.256-0.5458 0.541-0.3631 0.813-0.8571 0.813-1.4755 0-0.5105-0.183-0.9422-0.546-1.2908-0.365-0.3487-0.853-0.6579-1.465-0.9297-0.612-0.2719-1.291-0.5375-2.034-0.8011-1.008-0.3881-2.042-0.8363-3.102-1.3489-1.063-0.5105-1.957-1.2078-2.686-2.0919-0.728-0.8841-1.091-2.0525-1.091-3.5093s0.363-2.6065 1.091-3.638c0.729-1.0314 1.758-1.8283 3.093-2.3948 1.332-0.5666 2.882-0.8488 4.648-0.8488 2.868 0 5.726 0.7201 8.579 2.1624l-1.882 5.2775c-0.496-0.3881-1.116-0.7471-1.859-1.0813-0.743-0.332-1.507-0.5997-2.289-0.801-0.783-0.2013-1.484-0.303-2.105-0.303-0.759 0-1.353 0.1556-1.778 0.4648-0.426 0.3113-0.639 0.7368-0.639 1.2784 0 0.4026 0.147 0.7637 0.442 1.0812 0.294 0.3176 0.732 0.6205 1.313 0.9069s1.297 0.5936 2.15 0.9173c1.054 0.3881 2.119 0.8488 3.196 1.3842s1.984 1.2473 2.721 2.1396c0.737 0.8903 1.104 2.0732 1.104 3.5446s-0.392 2.7041-1.175 3.7895c-0.782 1.0853-1.882 1.9258-3.301 2.5214-1.42 0.5956-3.08 0.8945-4.987 0.8945-3.178 0-6.145-0.8218-8.903-2.4634l-4e-3 -0.0021z"/>
<path d="m194.98 72.992h-3.094l6.749-16.76h3.14l6.738 16.76h-3.094l-1.532-3.9098h-7.375l-1.532 3.9098zm2.503-6.4915h5.431l-2.714-6.9397-2.715 6.9397h-2e-3z"/>
<path d="m212.64 78.579h-2.749v-16.76h2.424l0.135 1.5648c0.491-0.5583 1.083-0.9962 1.776-1.3137 0.693-0.3154 1.449-0.4752 2.268-0.4752 1.044 0 1.976 0.2532 2.8 0.7595 0.824 0.5064 1.471 1.1975 1.944 2.0732 0.474 0.8758 0.71 1.8678 0.71 2.9781 0 1.1102-0.236 2.1022-0.71 2.978-0.473 0.8758-1.12 1.5668-1.944 2.0732s-1.756 0.7595-2.8 0.7595c-0.768 0-1.479-0.1369-2.133-0.4129-0.656-0.276-1.229-0.662-1.721-1.1622v6.9397-2e-3zm3.263-7.8446c0.627 0 1.183-0.1432 1.67-0.4296 0.488-0.2864 0.868-0.6807 1.14-1.185 0.272-0.5022 0.409-1.0791 0.409-1.7266s-0.137-1.2244-0.413-1.7266-0.656-0.8986-1.14-1.185c-0.483-0.2864-1.039-0.4296-1.664-0.4296-0.59 0-1.121 0.1328-1.598 0.3964s-0.861 0.6267-1.152 1.0833c-0.29 0.4566-0.463 0.9816-0.515 1.5689v0.6143c0.052 0.5894 0.223 1.1103 0.509 1.5647 0.286 0.4545 0.668 0.8094 1.145 1.0667 0.478 0.2574 1.013 0.386 1.609 0.386v0.0021z"/>
<path d="m226.45 78.579h-2.75v-16.76h2.424l0.135 1.5648c0.491-0.5583 1.083-0.9962 1.776-1.3137 0.693-0.3154 1.449-0.4752 2.268-0.4752 1.044 0 1.976 0.2532 2.8 0.7595 0.824 0.5064 1.471 1.1975 1.944 2.0732 0.474 0.8758 0.71 1.8678 0.71 2.9781 0 1.1102-0.236 2.1022-0.71 2.978-0.473 0.8758-1.12 1.5668-1.944 2.0732s-1.756 0.7595-2.8 0.7595c-0.768 0-1.479-0.1369-2.133-0.4129-0.656-0.276-1.229-0.662-1.72-1.1622v6.9397-2e-3zm3.262-7.8446c0.627 0 1.183-0.1432 1.67-0.4296 0.488-0.2864 0.868-0.6807 1.14-1.185 0.272-0.5022 0.409-1.0791 0.409-1.7266s-0.137-1.2244-0.413-1.7266-0.656-0.8986-1.14-1.185c-0.483-0.2864-1.039-0.4296-1.664-0.4296-0.589 0-1.121 0.1328-1.598 0.3964s-0.861 0.6267-1.152 1.0833c-0.29 0.4566-0.463 0.9816-0.514 1.5689v0.6143c0.051 0.5894 0.222 1.1103 0.508 1.5647 0.286 0.4545 0.668 0.8094 1.146 1.0667 0.477 0.2574 1.012 0.386 1.608 0.386v0.0021z"/>
<path d="m236.73 72.032 0.627-2.3907c0.245 0.2448 0.552 0.469 0.917 0.6703 0.366 0.2013 0.754 0.359 1.169 0.4752 0.413 0.1162 0.817 0.1723 1.212 0.1723 0.529 0 0.952-0.11 1.274-0.33 0.32-0.22 0.481-0.5084 0.481-0.8654 0-0.2822-0.097-0.5188-0.29-0.7097-0.193-0.191-0.446-0.357-0.76-0.5023-0.313-0.1452-0.655-0.2884-1.027-0.4295-0.492-0.1785-0.99-0.3923-1.496-0.6434-0.507-0.249-0.93-0.5811-1.268-0.994-0.338-0.413-0.509-0.963-0.509-1.6478s0.171-1.2369 0.509-1.7204c0.338-0.4836 0.813-0.8592 1.423-1.1227 0.611-0.2636 1.322-0.3964 2.134-0.3964 1.28 0 2.559 0.3196 3.833 0.9608l-0.793 2.2579c-0.239-0.1784-0.529-0.3424-0.872-0.4918-0.342-0.1494-0.693-0.2677-1.05-0.3569-0.357-0.0893-0.68-0.1349-0.971-0.1349-0.425 0-0.764 0.0933-1.017 0.2801s-0.379 0.4317-0.379 0.7367c0 0.2097 0.07 0.3964 0.211 0.5645s0.361 0.33 0.66 0.4856c0.299 0.1557 0.681 0.3321 1.152 0.5251 0.506 0.193 1.015 0.4192 1.525 0.6765 0.511 0.2574 0.938 0.5956 1.285 1.0169 0.346 0.4213 0.519 0.9775 0.519 1.6706 0 0.6932-0.185 1.2846-0.554 1.7993-0.37 0.5146-0.882 0.9152-1.542 1.2016s-1.428 0.4295-2.308 0.4295c-1.461 0-2.822-0.3943-4.09-1.1849l-5e-3 -0.0021z"/>
<path d="m254.21 72.702c-0.819 0.3424-1.612 0.5146-2.38 0.5146s-1.469-0.1681-2.061-0.5022c-0.591-0.3362-1.054-0.8031-1.386-1.4029-0.332-0.5997-0.498-1.297-0.498-2.096v-4.9392h-1.955v-2.4592h2.1v-2.7933h2.605v2.7933h3.185v2.4592h-3.185v4.437c0 0.6329 0.172 1.1331 0.518 1.4962 0.347 0.3653 0.781 0.5479 1.302 0.5479 0.462 0 0.919-0.1411 1.373-0.4254l0.38 2.3679 2e-3 0.0021z"/>
<path d="m260.99 73.217c-1.134 0-2.148-0.2531-3.045-0.7595-0.898-0.5064-1.606-1.1974-2.123-2.0732-0.519-0.8758-0.776-1.8678-0.776-2.978 0-1.1103 0.259-2.1023 0.776-2.9781 0.517-0.8757 1.225-1.5668 2.123-2.0732 0.897-0.5063 1.914-0.7595 3.045-0.7595s2.156 0.2532 3.05 0.7595c0.895 0.5064 1.596 1.1975 2.107 2.0732 0.51 0.8758 0.765 1.8678 0.765 2.9781 0 1.1102-0.255 2.1022-0.765 2.978-0.511 0.8758-1.212 1.5668-2.107 2.0732-0.894 0.5064-1.911 0.7595-3.05 0.7595zm-0.011-2.4695c0.596 0 1.129-0.1453 1.598-0.4358 0.469-0.2906 0.841-0.689 1.113-1.1954 0.271-0.5064 0.408-1.0792 0.408-1.7204 0-0.6413-0.137-1.2016-0.408-1.7038-0.272-0.5022-0.644-0.8986-1.113-1.1891-0.469-0.2906-1.002-0.4359-1.598-0.4359-0.595 0-1.118 0.1453-1.592 0.4359-0.473 0.2905-0.844 0.6869-1.116 1.1891s-0.407 1.0708-0.407 1.7038c0 0.6329 0.135 1.214 0.407 1.7204s0.643 0.9048 1.116 1.1954c0.474 0.2905 1.005 0.4358 1.592 0.4358z"/>
<path d="m271.42 72.992h-2.75v-11.173h2.391l0.099 2.0338c0.388-0.716 0.911-1.2701 1.569-1.6644 0.66-0.3943 1.417-0.5914 2.275-0.5914 0.224 0 0.452 0.0145 0.686 0.0456 0.235 0.0291 0.467 0.0748 0.7 0.1349l-0.336 2.48c-0.463-0.1349-0.909-0.2013-1.341-0.2013-0.656 0-1.231 0.1536-1.727 0.4586-0.496 0.3051-0.882 0.7285-1.156 1.268-0.276 0.5396-0.413 1.1684-0.413 1.8823v5.3293l3e-3 -0.0021z"/>
<path d="m287.68 71.697c-1.393 1.0127-2.916 1.5191-4.57 1.5191-1.2 0-2.277-0.2615-3.229-0.7824-0.955-0.5209-1.708-1.2327-2.262-2.1334-0.555-0.9007-0.833-1.9217-0.833-3.061 0-1.0792 0.252-2.0442 0.754-2.895 0.502-0.8488 1.191-1.5192 2.067-2.011 0.875-0.4918 1.863-0.7367 2.965-0.7367s2.154 0.2698 3.022 0.8093c0.867 0.5396 1.544 1.2888 2.027 2.2455 0.484 0.9567 0.727 2.069 0.727 3.335v0.3569h-8.604c0.135 0.5064 0.371 0.9546 0.709 1.3406 0.339 0.3881 0.762 0.689 1.268 0.9049 0.507 0.2158 1.077 0.3237 1.71 0.3237 1.192 0 2.296-0.3881 3.308-1.1621l0.938 1.9445 3e-3 0.0021zm-8.046-4.962h6.167c-0.06-0.5583-0.228-1.046-0.508-1.4631s-0.641-0.7429-1.083-0.9775c-0.444-0.2345-0.94-0.3528-1.492-0.3528s-1.059 0.1183-1.497 0.357c-0.44 0.2387-0.797 0.5686-1.073 0.9899s-0.446 0.9028-0.514 1.4465z"/>
</g>
</g>
<defs>
<linearGradient id="a" x1="37.706" x2="37.706" y1="21.925" y2="61.407" gradientUnits="userSpaceOnUse">
<stop stop-color="#FFAE00" offset="0"/>
<stop stop-color="#FF6B00" offset=".67"/>
<stop stop-color="#DE007B" offset="1"/>
</linearGradient>
<clipPath id="c">
<rect transform="translate(.68433 .41791)" width="311.76" height="92.375" fill="#fff"/>
</clipPath>
<clipPath id="b">
<rect transform="translate(71.406 37.723)" width="216.94" height="40.858" fill="#fff"/>
</clipPath>
</defs>
</svg>