<?xml version="1.0" encoding="utf-8"?>
<!-- Generator: Adobe Illustrator 28.0.0, SVG Export Plug-In . SVG Version: 6.00 Build 0)  -->
<svg version="1.1" id="Layer_1" xmlns="http://www.w3.org/2000/svg" xmlns:xlink="http://www.w3.org/1999/xlink" x="0px" y="0px"
	 viewBox="0 0 90 90" style="enable-background:new 0 0 90 90;" xml:space="preserve">
<style type="text/css">
	.st0{clip-path:url(#SVGID_00000049921368674064846560000006590965764194182551_);}
	.st1{fill:#F6E2DE;}
	.st2{fill:#DE9785;}
	.st3{fill:#853824;}
	.st4{fill:#D27259;}
	.st5{fill:#BF5034;}
	.st6{opacity:0.6;fill:#BF5034;enable-background:new    ;}
	.st7{opacity:0.15;fill:#BF5034;enable-background:new    ;}
</style>
<g>
	<defs>
		<rect id="SVGID_1_" width="90" height="90"/>
	</defs>
	<clipPath id="SVGID_00000026848147730404599850000011376419918726714288_">
		<use xlink:href="#SVGID_1_"  style="overflow:visible;"/>
	</clipPath>
	<g style="clip-path:url(#SVGID_00000026848147730404599850000011376419918726714288_);">
		<path class="st1" d="M45,90c24.9,0,45-20.1,45-45S69.9,0,45,0S0,20.1,0,45S20.1,90,45,90z"/>
		<path class="st2" d="M68,46.7c0,8.9-4.8,16.6-11.9,20.8c-1.4,0.8-2.9,1.5-4.4,2c-2.5,0.9-5.1,1.3-7.9,1.3c-3.7,0-7.3-0.8-10.4-2.4
			c-8.1-3.9-13.8-12.2-13.8-21.8c0-4.7,1.3-9.2,3.7-12.9c4.3-6.8,11.8-11.3,20.5-11.3c1.4,0,2.7,0.1,4,0.3c0,0,0.1,0,0.1,0
			c6.4,1.1,11.9,4.7,15.5,9.7C66.4,36.5,68,41.4,68,46.7L68,46.7z"/>
		<path class="st3" d="M68,46.7c0,10.6-6.8,19.6-16.3,22.9l-8.5-20.5l0.1-0.6l4.5-25.7C59.3,24.8,68,34.7,68,46.7L68,46.7z"/>
		<path class="st4" d="M70.3,46.9c0,9.6-5.1,18-12.8,22.7l-1.4-2l-7.7-11l-5.2-7.4l0.1-0.6l4.5-25.7l0.4-2c1.6,0.3,3.2,0.7,4.7,1.2
			c4.4,1.6,8.2,4.3,11.1,7.8C68,34.4,70.4,40.4,70.3,46.9L70.3,46.9z"/>
		<path class="st3" d="M48,22.9l-4.8,26L23.4,33.8c4.3-6.8,11.8-11.3,20.5-11.3c1.4,0,2.7,0.1,4,0.3C47.9,22.9,48,22.9,48,22.9z"/>
		<path class="st5" d="M48.6,19.6l-5.4,29.3L22.4,29.4c5-6.3,12.8-10.3,21.5-10.3C45.5,19.1,47,19.3,48.6,19.6L48.6,19.6z"/>
		<path class="st6" d="M53,22l-9.6,26.5l4.8-27.7C49.9,21.1,51.4,21.5,53,22z"/>
		<path class="st7" d="M70.3,46.9c0,9.6-5.1,18-12.8,22.7l-1.4-2c-1.4,0.8-2.9,1.5-4.4,2c-2.5,0.9-5.1,1.3-7.9,1.3
			c-3.7,0-7.3-0.8-10.4-2.4v-0.4c5.8-3.6,10.8-7.5,15-11.6c7.8-7.5,12.9-15.5,15-23.9c0.2-0.9,0.5-1.8,0.6-2.8
			C68,34.4,70.3,40.3,70.3,46.9L70.3,46.9z"/>
	</g>
</g>
</svg>
