<svg id="Group_452045" data-name="Group 452045" xmlns="http://www.w3.org/2000/svg" width="511.732" height="511.732" viewBox="0 0 511.732 511.732">
  <path id="Path_1263292" data-name="Path 1263292" d="M255.866,511.732c141.311,0,255.866-114.555,255.866-255.866S397.177,0,255.866,0,0,114.555,0,255.866,114.555,511.732,255.866,511.732Z" fill="#cbf4db"/>
  <path id="Path_1263293" data-name="Path 1263293" d="M83.86,39.107V207.4a10.045,10.045,0,0,1-9.721,10.11,1.1,1.1,0,0,1-.454.065H31.239A10.206,10.206,0,0,1,21,207.4V39.107A10.205,10.205,0,0,1,31.239,28.933H73.686a1.46,1.46,0,0,1,.454.065A10.045,10.045,0,0,1,83.86,39.107Z" transform="translate(98.404 135.575)" fill="#15b357"/>
  <path id="Path_1263294" data-name="Path 1263294" d="M44.259,21H24.818V75.176H44.259Z" transform="translate(116.293 98.404)" fill="#0b5c2c"/>
  <path id="Path_1263295" data-name="Path 1263295" d="M44.259,60.412H24.818v54.176H44.259Z" transform="translate(116.293 283.086)" fill="#0b5c2c"/>
  <path id="Path_1263296" data-name="Path 1263296" d="M81.073,22.345H61.632V76.52H81.073Z" transform="translate(288.801 104.704)" fill="#0b5c2c"/>
  <path id="Path_1263297" data-name="Path 1263297" d="M81.073,59.181H61.632v54.241H81.073Z" transform="translate(288.801 277.317)" fill="#0b5c2c"/>
  <path id="Path_1263298" data-name="Path 1263298" d="M62.666,27.85H43.225V82.09H62.666Z" transform="translate(202.547 130.5)" fill="#0b5c2c"/>
  <path id="Path_1263299" data-name="Path 1263299" d="M62.666,53.653H43.225v54.241H62.666Z" transform="translate(202.547 251.412)" fill="#0b5c2c"/>
  <path id="Path_1263300" data-name="Path 1263300" d="M74.139,29V217.512a1.47,1.47,0,0,1-.259.065H31.239A10.206,10.206,0,0,1,21,207.4V39.107A10.205,10.205,0,0,1,31.239,28.933H73.686A1.46,1.46,0,0,1,74.139,29Z" transform="translate(98.404 135.575)" fill="#17c55f"/>
  <path id="Path_1263301" data-name="Path 1263301" d="M30.721,28.944V217.458A10.045,10.045,0,0,1,21,207.349V39.053A10.045,10.045,0,0,1,30.721,28.944Z" transform="translate(98.404 135.627)" fill="#29e677"/>
  <path id="Path_1263302" data-name="Path 1263302" d="M74.139,29V217.058a3.523,3.523,0,0,1-.259.519H31.239A10.206,10.206,0,0,1,21,207.4v-8.554c18.469-16.2,23.589-27.606,30.393-60.333a290.736,290.736,0,0,0,5.768-40.438l6.545-69.146h9.98A1.46,1.46,0,0,1,74.139,29Z" transform="translate(98.404 135.575)" fill="#15b357" opacity="0.5"/>
  <path id="Path_1263303" data-name="Path 1263303" d="M102.267,45.945v90.532a10.045,10.045,0,0,1-9.721,10.11,1.112,1.112,0,0,1-.454.064H49.646a10.205,10.205,0,0,1-10.239-10.174V45.945A10.205,10.205,0,0,1,49.646,35.771H92.093a1.46,1.46,0,0,1,.454.065A10.045,10.045,0,0,1,102.267,45.945Z" transform="translate(184.658 167.619)" fill="#15b357"/>
  <path id="Path_1263304" data-name="Path 1263304" d="M92.547,35.836v110.75a1.481,1.481,0,0,1-.259.064H49.646a10.205,10.205,0,0,1-10.239-10.174V45.945A10.205,10.205,0,0,1,49.646,35.771H92.093A1.46,1.46,0,0,1,92.547,35.836Z" transform="translate(184.658 167.619)" fill="#17c55f"/>
  <path id="Path_1263305" data-name="Path 1263305" d="M49.128,35.782v110.75a10.045,10.045,0,0,1-9.721-10.11V45.892A10.045,10.045,0,0,1,49.128,35.782Z" transform="translate(184.658 167.671)" fill="#29e677"/>
  <path id="Path_1263306" data-name="Path 1263306" d="M92.547,35.836v110.3a3.5,3.5,0,0,1-.259.518H49.646a10.205,10.205,0,0,1-10.239-10.174v-8.554c34.8-6.026,42.706-92.151,42.706-92.151h9.98A1.46,1.46,0,0,1,92.547,35.836Z" transform="translate(184.658 167.619)" fill="#15b357" opacity="0.5"/>
  <path id="Path_1263307" data-name="Path 1263307" d="M120.673,40.337V194.571a10.045,10.045,0,0,1-9.721,10.11,1.1,1.1,0,0,1-.454.065H68.052a10.205,10.205,0,0,1-10.239-10.174V40.337A10.205,10.205,0,0,1,68.052,30.163H110.5a1.472,1.472,0,0,1,.454.064A10.046,10.046,0,0,1,120.673,40.337Z" transform="translate(270.907 141.344)" fill="#15b357"/>
  <path id="Path_1263308" data-name="Path 1263308" d="M110.952,30.228V204.681a1.47,1.47,0,0,1-.259.065H68.052a10.205,10.205,0,0,1-10.239-10.174V40.337A10.205,10.205,0,0,1,68.052,30.163H110.5A1.472,1.472,0,0,1,110.952,30.228Z" transform="translate(270.907 141.344)" fill="#17c55f"/>
  <path id="Path_1263309" data-name="Path 1263309" d="M67.534,30.175V204.627a10.045,10.045,0,0,1-9.721-10.11V40.284A10.045,10.045,0,0,1,67.534,30.175Z" transform="translate(270.907 141.396)" fill="#29e677"/>
  <path id="Path_1263310" data-name="Path 1263310" d="M110.952,30.228v174a3.52,3.52,0,0,1-.259.519H68.052a10.205,10.205,0,0,1-10.239-10.174v-8.554c34.8-6.026,42.706-155.853,42.706-155.853h9.98A1.472,1.472,0,0,1,110.952,30.228Z" transform="translate(270.907 141.344)" fill="#15b357" opacity="0.5"/>
</svg>
