<?xml version="1.0" encoding="utf-8"?>
<!-- Generator: Adobe Illustrator 28.0.0, SVG Export Plug-In . SVG Version: 6.00 Build 0)  -->
<svg version="1.1" id="Layer_1" xmlns="http://www.w3.org/2000/svg" xmlns:xlink="http://www.w3.org/1999/xlink" x="0px" y="0px"
	 viewBox="0 0 90 90" style="enable-background:new 0 0 90 90;" xml:space="preserve">
<style type="text/css">
	.st0{clip-path:url(#SVGID_00000039117644277686190920000015104455510848878226_);}
	.st1{fill:#E5D7FA;}
	.st2{fill:#A069ED;}
	.st3{opacity:0.4;fill:#5F17C5;enable-background:new    ;}
	.st4{fill:#5F17C5;}
	.st5{fill:#C3A0F4;}
	.st6{opacity:0.5;fill:#FFFFFF;enable-background:new    ;}
	.st7{fill:#5514B1;}
</style>
<g>
	<defs>
		<rect id="SVGID_1_" width="90" height="90"/>
	</defs>
	<clipPath id="SVGID_00000126301613002151635110000010574951509889737374_">
		<use xlink:href="#SVGID_1_"  style="overflow:visible;"/>
	</clipPath>
	<g style="clip-path:url(#SVGID_00000126301613002151635110000010574951509889737374_);">
		<path class="st1" d="M45,90c24.9,0,45-20.1,45-45S69.9,0,45,0S0,20.1,0,45S20.1,90,45,90z"/>
		<path class="st2" d="M42.2,65.5c-1.1-0.4-3-0.9-5.2-0.8c-0.8,0-1.6,0.1-2.5,0.2c-0.1,0-1.2,0.2-2.3,0.6c-3.2,1.1-5.3,3.2-6.7,5
			c-0.6,0.8-1.9,0.4-1.9-0.6v-8.1c0-1.9,0.5-3.7,1.4-5.3c0.5-0.9,1.1-1.5,1.9-2.5c0.8-0.9,1.7-1.7,2.6-2.5c0.7-0.6,1.3-1.1,1.8-1.5
			L42.2,65.5L42.2,65.5z"/>
		<path class="st2" d="M66.4,61.8v8.1c0,1-1.3,1.4-1.9,0.6c-1.3-1.8-3.4-3.8-6.7-4.9c-1.1-0.4-2.2-0.6-2.3-0.6
			c-0.9-0.2-1.7-0.2-2.5-0.2c-2.2,0-4,0.4-5.2,0.8l11-15.7c0.5,0.4,1.1,0.9,1.7,1.5c0.9,0.8,1.8,1.7,2.5,2.6c0.9,1,1.4,1.6,1.9,2.5
			C65.9,58,66.4,59.9,66.4,61.8L66.4,61.8z"/>
		<path class="st3" d="M31.3,50l10.8,15.5c-1.1-0.4-3-0.9-5.2-0.8c-3.7-3.6-6.3-8.2-7.4-13.2C30.2,50.9,30.8,50.4,31.3,50L31.3,50z"
			/>
		<path class="st3" d="M60.5,51.3c-1.1,5-3.7,9.7-7.5,13.3c-2.2,0-4,0.4-5.2,0.8l11-15.7C59.3,50.2,59.9,50.7,60.5,51.3L60.5,51.3z"
			/>
		<path class="st4" d="M59.3,41v4.4c0,8.8-4.9,16.9-12.9,21.1l-0.6,0.3L45,67.2l-0.9-0.4l-0.6-0.3c-1.7-0.9-3.2-2-4.6-3.2
			c-5.2-4.5-8.3-11-8.3-17.9V41c0-5.1,1.7-10,4.6-13.9c2.1-2.9,4.9-5.4,8.3-7.1l1.4-0.8l1.4,0.8c3.3,1.8,6.1,4.2,8.3,7.1
			c0.6,0.8,1.2,1.7,1.7,2.6C58.3,33.1,59.3,37,59.3,41L59.3,41z"/>
		<path class="st5" d="M46.5,45.5c-5.5,1-10.3-3.6-9.2-8.9c0.6-3,3.1-5.4,6.1-6c5.5-1,10.3,3.6,9.2,8.9C52.1,42.6,49.6,45,46.5,45.5
			z"/>
		<path class="st5" d="M54.7,27H35.3c2.1-2.9,5-5.4,8.3-7.1l1.4-0.8l1.4,0.8C49.7,21.7,52.6,24.1,54.7,27z"/>
		<path class="st6" d="M50.9,38.1c0,3.2-2.7,5.8-5.9,5.8c-1.4,0-2.7-0.5-3.7-1.2c-1.4-1.1-2.2-2.7-2.2-4.5c0-3.2,2.7-5.8,5.9-5.8
			c0.8,0,1.6,0.2,2.2,0.4C49.4,33.6,50.9,35.7,50.9,38.1z"/>
		<path class="st6" d="M49.5,37.3c0,3.2-2.7,5.8-5.9,5.8c-0.8,0-1.6-0.2-2.3-0.4c-1.4-1.1-2.2-2.7-2.2-4.5c0-3.2,2.7-5.8,5.9-5.8
			c0.8,0,1.6,0.2,2.2,0.4C48.6,33.8,49.5,35.4,49.5,37.3L49.5,37.3z"/>
		<path class="st7" d="M59.3,41v4.4c0,8.8-4.9,16.9-12.9,21.1l-0.6,0.3h-1.7l-0.6-0.3c-1.7-0.9-3.2-2-4.6-3.2
			c9.2-7.3,14.8-15.9,16.2-25l1.3-8.6C58.3,33.1,59.3,36.9,59.3,41L59.3,41z"/>
		<path class="st5" d="M44.7,70.6l-0.5-1.3c-2.3-6.3-2.3-13.2,0-19.5l0.5-1.3c0.2-0.4,0.8-0.4,0.9,0l0.4,1.1
			c2.3,6.4,2.3,13.4,0,19.8l-0.4,1.1C45.5,71,44.8,71,44.7,70.6z"/>
	</g>
</g>
</svg>
