<svg xmlns="http://www.w3.org/2000/svg" xmlns:xlink="http://www.w3.org/1999/xlink" width="528" height="528" viewBox="0 0 528 528">
  <defs>
    <clipPath id="clip-path">
      <rect id="Rectangle_157528" data-name="Rectangle 157528" width="252.437" height="334.626" fill="#fff"/>
    </clipPath>
  </defs>
  <g id="Group_452048" data-name="Group 452048" transform="translate(0 -0.317)">
    <circle id="Ellipse_8627" data-name="Ellipse 8627" cx="264" cy="264" r="264" transform="translate(0 0.318)" fill="#96f5ff"/>
    <g id="Group_452047" data-name="Group 452047" transform="translate(135.025 99.76)" clip-path="url(#clip-path)">
      <path id="Path_1263316" data-name="Path 1263316" d="M336.855,218.433a7.442,7.442,0,0,0-7.087-7.2h-4.1c-14.425,0-60.186,2.482-90.031,32.259a87,87,0,0,0-12.808,16.255V187.043H198.7V259.75A86.931,86.931,0,0,0,185.89,243.5c-29.968-29.776-75.606-32.259-90.031-32.259H91.879a7.463,7.463,0,0,0-7.213,7.2v2.854l.871,17.742v1.117c.373,1.861.622,3.845.87,5.831l.373,2.109c.249,1.365.5,2.854.746,4.219l2.363,9.926c.249,1.242.622,2.482.995,3.722l2.238,7.073c.5,1.116.87,2.358,1.368,3.6.373.993.746,1.986,1.492,3.6l.373.868c.373.868.746,1.737,1.119,2.73.622,1.117,1.119,2.11,1.741,3.226l.373.744a57.914,57.914,0,0,0,3.358,6.08l.5.993,1.492,2.233.622.993A87.492,87.492,0,0,0,117,312.233a80.027,80.027,0,0,0,8.58,7.445l1.243.5c9.078,1.86,46.508,2.73,83.939,2.73s74.861-.87,83.939-2.73l1.243-.5a79.868,79.868,0,0,0,8.58-7.445,87.551,87.551,0,0,0,11.442-14.144l.621-.993q.747-1.116,1.492-2.233l.5-.993a57.837,57.837,0,0,0,3.357-6.08l.374-.744c.621-1.116,1.119-2.109,1.74-3.226.374-.993.747-1.861,1.119-2.73l.623-1.489a22.938,22.938,0,0,0,1.243-3.1c.5-1.116.87-2.358,1.368-3.473l2.238-7.073c.374-1.24.747-2.481,1.119-4.094l2.24-9.554c.247-1.365.5-2.854.745-4.219l.374-2.109c.249-1.986.5-3.97.745-5.831l.5-5.459.621-12.283v-3.971Z" transform="translate(-84.543 11.723)" fill="#00d7ed"/>
      <path id="Path_1263317" data-name="Path 1263317" d="M147.341,311.137l-1.243-.5a80.03,80.03,0,0,1-8.58-7.445,87.464,87.464,0,0,1-11.44-14.144l-.623-.993q-.745-1.116-1.492-2.233l-.5-.993a58.154,58.154,0,0,1-3.359-6.08l-.372-.744c-.623-1.116-1.121-2.109-1.742-3.226-.374-.993-.745-1.861-1.119-2.73l-.374-.868c-.745-1.612-1.119-2.605-1.492-3.6-.5-1.24-.87-2.482-1.368-3.6l-2.238-7.073c-.374-1.24-.745-2.481-.994-3.722l-2.363-9.925c-.249-1.365-.5-2.854-.746-4.219l-.373-2.109c-.249-1.986-.5-3.97-.746-5.831v-1.117l-1.119-17.742V209.4a7.711,7.711,0,0,1,4.6-6.575c-5.844-.5-10.569-.621-13.8-.621H91.879a7.463,7.463,0,0,0-7.213,7.2v2.854l.871,17.742v1.117c.373,1.861.622,3.845.87,5.831l.373,2.109c.249,1.365.5,2.854.746,4.219l2.363,9.925c.249,1.242.622,2.482.995,3.722l2.238,7.073c.5,1.116.87,2.358,1.368,3.6.373.993.746,1.986,1.492,3.6l.373.868c.373.868.746,1.737,1.119,2.73.622,1.117,1.119,2.11,1.741,3.226l.373.744a57.917,57.917,0,0,0,3.358,6.08l.5.993,1.492,2.233.622.993A87.494,87.494,0,0,0,117,303.2a80.034,80.034,0,0,0,8.58,7.445l1.243.5c9.078,1.86,46.508,2.73,83.939,2.73H222.45C188.13,313.742,155.673,312.874,147.341,311.137Z" transform="translate(-84.543 20.76)" fill="#26ebff"/>
      <path id="Path_1263318" data-name="Path 1263318" d="M156.338,313.867h11.689c37.43,0,74.861-.87,83.939-2.73l1.243-.5a79.876,79.876,0,0,0,8.58-7.445,87.555,87.555,0,0,0,11.442-14.144l.621-.993q.747-1.116,1.493-2.233l.5-.993a57.845,57.845,0,0,0,3.357-6.08l.374-.744c.621-1.116,1.119-2.109,1.74-3.226.374-.993.747-1.861,1.119-2.73l.374-.868c.747-1.612,1.119-2.605,1.493-3.6.5-1.24.87-2.482,1.368-3.6l2.238-7.073c.374-1.24.747-2.481.994-3.722l2.364-9.925c.247-1.365.5-2.854.745-4.219l.374-2.109c.249-1.986.5-3.97.745-5.831v-1.117l1.119-17.742V209.4a7.669,7.669,0,0,0-7.336-7.2H282.93c-3.232,0-7.959.125-13.8.621A7.376,7.376,0,0,1,273.6,209.4v2.854l-.87,17.742v1.117c-.374,1.861-.623,3.845-.87,5.831l-.373,2.109c-.249,1.365-.5,2.854-.745,4.219l-2.364,9.925c-.247,1.242-.621,2.482-.994,3.722l-2.238,7.073c-.5,1.116-.87,2.358-1.368,3.6-.374.993-.747,1.986-1.492,3.6l-.374.868c-.372.868-.745,1.737-1.119,2.73-.621,1.117-1.119,2.11-1.74,3.226l-.374.744a57.872,57.872,0,0,1-3.358,6.08l-.5.993q-.747,1.116-1.492,2.233l-.623.993a87.468,87.468,0,0,1-11.44,14.144,80.038,80.038,0,0,1-8.58,7.445l-1.244.5C223.115,312.874,190.661,313.742,156.338,313.867Z" transform="translate(-41.809 20.76)" fill="#00a4b5" opacity="0.2"/>
      <path id="Path_1263319" data-name="Path 1263319" d="M156.1,187.043v32.88a98.184,98.184,0,0,0,24.126,0v-32.88Z" transform="translate(-41.948 11.723)" opacity="0.1"/>
      <path id="Path_1263320" data-name="Path 1263320" d="M204.3,62.522C144.243,62.522,95.5,111.159,95.5,171.087S144.243,279.651,204.3,279.651s108.81-48.638,108.81-108.564S264.368,62.522,204.3,62.522Z" transform="translate(-78.086 -62.522)" fill="#00a4b5"/>
      <path id="Path_1263321" data-name="Path 1263321" d="M115.641,171.087A108.579,108.579,0,0,1,214.377,63.018a91.245,91.245,0,0,0-10.072-.5C144.243,62.522,95.5,111.159,95.5,171.087S144.243,279.651,204.3,279.651a91.327,91.327,0,0,0,10.072-.5A108.579,108.579,0,0,1,115.641,171.087Z" transform="translate(-78.086 -62.522)" fill="#00d7ed" opacity="0.3"/>
      <path id="Path_1263322" data-name="Path 1263322" d="M173.494,62.522a106.777,106.777,0,0,0-26.115,3.226,108.359,108.359,0,0,1,0,210.553,106.731,106.731,0,0,0,26.115,3.226,108.5,108.5,0,1,0,0-217Z" transform="translate(-47.151 -62.522)" opacity="0.05"/>
      <path id="Path_1263323" data-name="Path 1263323" d="M182.312,95.338H146.747a3.736,3.736,0,0,0-3.73,3.722v8.933a3.736,3.736,0,0,0,3.73,3.722h19.275c7.336,0,11.814,2.854,13.927,8.685,0,0,0,.247-.125.247H146.872a3.737,3.737,0,0,0-3.73,3.722v8.934a3.737,3.737,0,0,0,3.73,3.722h32.953s.249.123.125.247c-1.989,5.831-6.591,8.685-13.927,8.685H146.747a3.736,3.736,0,0,0-3.73,3.722v9.8a9.1,9.1,0,0,0,3.232,7.2L176.964,194.6a2.342,2.342,0,0,0,.5.372l12.684,11.662a3.765,3.765,0,0,0,5.347-.247c1.866-1.986,4.228-4.715,6.093-6.7a3.862,3.862,0,0,0-.249-5.335l-34.445-31.887c15.918-.249,27.732-10.05,30.839-25.187h7.585a3.688,3.688,0,0,0,3.73-3.847v-9.3a3.764,3.764,0,0,0-3.855-3.722h-7.461a32.722,32.722,0,0,0-2.983-8.685h10.569a3.736,3.736,0,0,0,3.73-3.722V98.813a3.736,3.736,0,0,0-3.73-3.722H182.312Z" transform="translate(-49.751 -43.104)" fill="#fff"/>
    </g>
  </g>
</svg>
