<?xml version="1.0" encoding="utf-8"?>
<!-- Generator: Adobe Illustrator 28.0.0, SVG Export Plug-In . SVG Version: 6.00 Build 0)  -->
<svg version="1.1" id="Layer_1" xmlns="http://www.w3.org/2000/svg" xmlns:xlink="http://www.w3.org/1999/xlink" x="0px" y="0px"
	 viewBox="0 0 90 90" style="enable-background:new 0 0 90 90;" xml:space="preserve">
<style type="text/css">
	.st0{clip-path:url(#SVGID_00000065774390831761248940000004832717842350786977_);}
	.st1{fill:#FFE7C1;}
	.st2{fill:#FFC870;}
	.st3{fill:#FFD798;}
	.st4{fill:#FFB847;}
	.st5{fill:#FFA81E;}
	.st6{opacity:0.35;fill:#FFB847;enable-background:new    ;}
	.st7{opacity:0.35;fill:#FFA81E;enable-background:new    ;}
	.st8{opacity:0.15;fill:#FFFFFF;enable-background:new    ;}
	.st9{opacity:0.25;fill:#FFB847;enable-background:new    ;}
</style>
<g>
	<defs>
		<rect id="SVGID_1_" width="90" height="90"/>
	</defs>
	<clipPath id="SVGID_00000131349726050706857650000007425553049857189531_">
		<use xlink:href="#SVGID_1_"  style="overflow:visible;"/>
	</clipPath>
	<g style="clip-path:url(#SVGID_00000131349726050706857650000007425553049857189531_);">
		<path class="st1" d="M45,90c24.9,0,45-20.1,45-45S69.9,0,45,0S0,20.1,0,45S20.1,90,45,90z"/>
		<path class="st2" d="M30.8,51v17.2c0,0.2-0.2,0.4-0.4,0.4h-4.7v-18h4.7C30.6,50.6,30.8,50.8,30.8,51L30.8,51z"/>
		<path class="st3" d="M27.3,51v17.2c0,0.2-0.1,0.3-0.3,0.4c0,0-0.1,0-0.1,0h-5.2c0,0,0,0-0.1,0c0,0,0,0,0,0c-0.2,0-0.3-0.2-0.3-0.4
			V51.1c0-0.2,0.2-0.4,0.4-0.4h5.2C27.1,50.6,27.3,50.8,27.3,51L27.3,51z"/>
		<path class="st4" d="M43.4,38.2v30c0,0.2-0.2,0.4-0.4,0.4h-4.3c-0.2,0-0.4-0.2-0.4-0.4v-30c0-0.2,0.2-0.4,0.4-0.4H43
			C43.2,37.8,43.4,38,43.4,38.2z"/>
		<path class="st2" d="M39.9,38.2v30c0,0.2-0.2,0.4-0.4,0.4h-5.2c0,0,0,0-0.1,0c-0.2,0-0.3-0.2-0.3-0.4v-30c0-0.2,0.2-0.4,0.4-0.4
			h5.2C39.8,37.9,39.9,38,39.9,38.2L39.9,38.2z"/>
		<path class="st5" d="M55.6,21.4h-4.3c-0.2,0-0.4,0.2-0.4,0.4v46.4c0,0.2,0.2,0.4,0.4,0.4h4.3c0.2,0,0.4-0.2,0.4-0.4V21.8
			C56,21.6,55.8,21.4,55.6,21.4z"/>
		<path class="st4" d="M52.6,21.8v46.4c0,0.2-0.2,0.4-0.4,0.4H47c0,0,0,0-0.1,0c-0.2,0-0.3-0.2-0.3-0.4V21.8c0-0.2,0.2-0.4,0.4-0.4
			h5.2C52.4,21.4,52.6,21.6,52.6,21.8z"/>
		<path class="st5" d="M68.3,49.9h-4.3c-0.2,0-0.4,0.2-0.4,0.4v17.9c0,0.2,0.2,0.4,0.4,0.4h4.3c0.2,0,0.4-0.2,0.4-0.4V50.3
			C68.7,50.1,68.5,49.9,68.3,49.9z"/>
		<path class="st4" d="M64.8,49.9h-5.2c-0.2,0-0.4,0.2-0.4,0.4v17.9c0,0.2,0.2,0.4,0.4,0.4h5.2c0.2,0,0.4-0.2,0.4-0.4V50.3
			C65.2,50.1,65,49.9,64.8,49.9z"/>
		<path class="st6" d="M65.2,50.3v17.9c0,0.2-0.2,0.4-0.4,0.4h-5.2c-0.2,0-0.4-0.2-0.4-0.4v-0.8c2.7-3.5,4.3-7.8,4.7-12.2l0.5-5.3
			h0.4C65,49.9,65.2,50.1,65.2,50.3L65.2,50.3z"/>
		<path class="st6" d="M65.2,50.3v17.9c0,0.2-0.2,0.4-0.4,0.4h-5.2c-0.2,0-0.4-0.2-0.4-0.4v-0.8c2.7-3.5,4.3-7.8,4.7-12.2l0.5-5.3
			h0.4C65,49.9,65.2,50.1,65.2,50.3L65.2,50.3z"/>
		<path class="st6" d="M40.1,37.8v30.1c0,0.4-0.2,0.7-0.4,0.7h-5.2c-0.2,0-0.4-0.3-0.4-0.7v-1.3c2.4-2.9,3-4.3,3.7-9.6
			c0.3-1.9,0.5-3.8,0.6-5.8l0.8-13.3H40.1L40.1,37.8z"/>
		<path class="st7" d="M52.6,22.4v45.2c0,0.6-0.2,1-0.4,1H47c-0.2,0-0.4-0.4-0.4-1v-2c4.1-3,4.1-7.5,4.4-18.7l0.7-25.5h0.4
			C52.4,21.4,52.5,21.8,52.6,22.4L52.6,22.4z"/>
		<path class="st8" d="M60.4,49.9v18.7h-0.8c-0.2,0-0.4-0.2-0.4-0.4V50.3c0-0.2,0.2-0.4,0.4-0.4L60.4,49.9L60.4,49.9z"/>
		<path class="st8" d="M47.8,21.4v47.2H47c0,0,0,0-0.1,0c-0.2-0.1-0.3-0.5-0.3-1V21.8c0-0.2,0.2-0.4,0.4-0.4H47.8z"/>
		<path class="st8" d="M35.1,37.8v30.8h-0.8c0,0,0,0-0.1,0c-0.2-0.1-0.3-0.5-0.3-1V38.3c0-0.2,0.2-0.4,0.4-0.4L35.1,37.8L35.1,37.8z
			"/>
		<path class="st9" d="M27.3,50.6v17.3c0,0.3-0.1,0.6-0.3,0.7c0,0-0.1,0-0.1,0h-5.2c0,0,0,0-0.1,0c0,0,0,0,0,0
			c-0.2-0.1-0.3-0.3-0.3-0.7v-1.3c2.4-2.9,3-4.3,3.7-9.6c0.3-1.9,0.5-3.8,0.6-5.8v-0.5H27.3z"/>
		<path class="st8" d="M22.5,50.6v18h-0.8c0,0,0,0-0.1,0c-0.2-0.1-0.3-0.5-0.3-1V51.1c0-0.2,0.2-0.4,0.4-0.4H22.5z"/>
	</g>
</g>
</svg>
