<svg xmlns="http://www.w3.org/2000/svg" xmlns:xlink="http://www.w3.org/1999/xlink" width="512" height="512" viewBox="0 0 512 512">
  <defs>
    <clipPath id="clip-path">
      <rect id="Rectangle_157527" data-name="Rectangle 157527" width="512" height="512" fill="#fff"/>
    </clipPath>
  </defs>
  <g id="Group_452046" data-name="Group 452046" clip-path="url(#clip-path)">
    <path id="Path_1263311" data-name="Path 1263311" d="M255.978,511.956c141.373,0,255.978-114.605,255.978-255.978S397.351,0,255.978,0,0,114.605,0,255.978,114.605,511.956,255.978,511.956Z" fill="#b2f6ce"/>
    <path id="Path_1263312" data-name="Path 1263312" d="M325.174,171.587a153.587,153.587,0,1,1-307.174,0,149.306,149.306,0,0,1,6.015-42.364,143.262,143.262,0,0,1,15.1-35.2,153.526,153.526,0,0,1,286.055,77.561Z" transform="translate(84.391 84.391)" fill="#17c55f"/>
    <path id="Path_1263313" data-name="Path 1263313" d="M222.849,171.587A153.545,153.545,0,0,1,69.262,325.174a146.522,146.522,0,0,1-29.182-2.816,153.535,153.535,0,0,0-.255-301.542A158.342,158.342,0,0,1,69.262,18,153.545,153.545,0,0,1,222.849,171.587Z" transform="translate(186.716 84.391)" opacity="0.05"/>
    <path id="Path_1263314" data-name="Path 1263314" d="M221.024,91.286l-58.235,97.656H140.007l-27.9-43-25.47,43H71.405L28.145,88.087l-9.087-21.5a143.262,143.262,0,0,1,15.1-35.2l9.087,19.966,36.6,81.273,23.294-30.973h19.838l29.821,47.1,46.076-70.906,22.142,13.695Z" transform="translate(89.349 147.157)" fill="#fff"/>
    <path id="Path_1263315" data-name="Path 1263315" d="M104.262,33.37A3.854,3.854,0,0,1,109,35.929v.512l7.935,56.443a3.754,3.754,0,0,1-3.2,4.224,4.408,4.408,0,0,1-2.56-.512L48.459,55.9a3.759,3.759,0,0,1-1.152-5.248,3.816,3.816,0,0,1,2.176-1.536L104.262,33.5Z" transform="translate(218.91 155.67)" fill="#fff"/>
  </g>
</svg>
